HIERARCHY
ROOT Hips
{
	OFFSET 0.000000 100.481300 0.000000
	CHANNELS 6 Xposition Yposition Zposition Xrotation Yrotation Zrotation
	JOINT Spine
	{
		OFFSET -0.279200 12.230698 -2.892100
		CHANNELS 3 Xrotation Yrotation Zrotation
		JOINT Spine1
		{
			OFFSET -0.325700 14.269203 -3.374200
			CHANNELS 3 Xrotation Yrotation Zrotation
			JOINT Spine2
			{
				OFFSET -0.372300 16.307602 -0.352600
				CHANNELS 3 Xrotation Yrotation Zrotation
				JOINT Neck
				{
					OFFSET -0.418800 17.814194 8.416900
					CHANNELS 3 Xrotation Yrotation Zrotation
					JOINT Head
					{
						OFFSET 0.000000 7.031097 3.806800
						CHANNELS 3 Xrotation Yrotation Zrotation
						JOINT HeadTop_End
						{
							OFFSET 0.000000 24.646606 12.978600
							CHANNELS 3 Xrotation Yrotation Zrotation
							End Site
							{
								OFFSET 0.000000 27.854965 0.000000
							}
						}
					}
				}
				JOINT LeftShoulder
				{
					OFFSET 16.952999 14.495407 -7.737500
					CHANNELS 3 Xrotation Yrotation Zrotation
					JOINT LeftArm
					{
						OFFSET 9.308998 -2.777710 0.208600
						CHANNELS 3 Xrotation Yrotation Zrotation
						JOINT LeftForeArm
						{
							OFFSET 29.972298 0.000000 0.000000
							CHANNELS 3 Xrotation Yrotation Zrotation
							JOINT LeftHand
							{
								OFFSET 26.026505 0.000000 0.000000
								CHANNELS 3 Xrotation Yrotation Zrotation
								JOINT LeftHandThumb1
								{
									OFFSET 12.240501 -7.147949 9.207150
									CHANNELS 3 Xrotation Yrotation Zrotation
									JOINT LeftHandThumb2
									{
										OFFSET 4.138618 -2.389435 2.389433
										CHANNELS 3 Xrotation Yrotation Zrotation
										JOINT LeftHandThumb3
										{
											OFFSET 2.726913 -1.574387 1.574386
											CHANNELS 3 Xrotation Yrotation Zrotation
											JOINT LeftHandThumb4
											{
												OFFSET 3.941010 -2.275345 2.275342
												CHANNELS 3 Xrotation Yrotation Zrotation
												End Site
												{
													OFFSET -0.005798 5.087799 0.009903
												}
											}
										}
									}
								}
								JOINT LeftHandIndex1
								{
									OFFSET 24.424698 -1.985611 5.953459
									CHANNELS 3 Xrotation Yrotation Zrotation
									JOINT LeftHandIndex2
									{
										OFFSET 6.426697 0.000000 0.000000
										CHANNELS 3 Xrotation Yrotation Zrotation
										JOINT LeftHandIndex3
										{
											OFFSET 5.337898 0.000000 0.000000
											CHANNELS 3 Xrotation Yrotation Zrotation
											JOINT LeftHandIndex4
											{
												OFFSET 4.409401 0.000000 0.000000
												CHANNELS 3 Xrotation Yrotation Zrotation
												End Site
												{
													OFFSET 0.000000 4.409363 0.014373
												}
											}
										}
									}
								}
								JOINT LeftHandMiddle1
								{
									OFFSET 23.810104 0.000000 0.000000
									CHANNELS 3 Xrotation Yrotation Zrotation
									JOINT LeftHandMiddle2
									{
										OFFSET 7.176498 0.000000 0.000000
										CHANNELS 3 Xrotation Yrotation Zrotation
										JOINT LeftHandMiddle3
										{
											OFFSET 6.774902 0.000000 0.000000
											CHANNELS 3 Xrotation Yrotation Zrotation
											JOINT LeftHandMiddle4
											{
												OFFSET 5.403328 0.000000 0.000000
												CHANNELS 3 Xrotation Yrotation Zrotation
												End Site
												{
													OFFSET -0.027702 5.403244 0.017414
												}
											}
										}
									}
								}
								JOINT LeftHandRing1
								{
									OFFSET 22.908401 -0.839279 -6.020567
									CHANNELS 3 Xrotation Yrotation Zrotation
									JOINT LeftHandRing2
									{
										OFFSET 6.337502 0.000000 0.000000
										CHANNELS 3 Xrotation Yrotation Zrotation
										JOINT LeftHandRing3
										{
											OFFSET 5.779297 0.000000 0.000000
											CHANNELS 3 Xrotation Yrotation Zrotation
											JOINT LeftHandRing4
											{
												OFFSET 4.965698 0.000000 0.000000
												CHANNELS 3 Xrotation Yrotation Zrotation
												End Site
												{
													OFFSET 0.000000 4.965668 0.016186
												}
											}
										}
									}
								}
								JOINT LeftHandPinky1
								{
									OFFSET 20.037003 -1.530319 -10.950146
									CHANNELS 3 Xrotation Yrotation Zrotation
									JOINT LeftHandPinky2
									{
										OFFSET 5.254700 0.000000 0.000000
										CHANNELS 3 Xrotation Yrotation Zrotation
										JOINT LeftHandPinky3
										{
											OFFSET 4.810204 0.000000 0.000000
											CHANNELS 3 Xrotation Yrotation Zrotation
											JOINT LeftHandPinky4
											{
												OFFSET 3.647202 0.000000 0.000000
												CHANNELS 3 Xrotation Yrotation Zrotation
												End Site
												{
													OFFSET 0.000000 3.647186 0.011889
												}
											}
										}
									}
								}
							}
						}
					}
				}
				JOINT RightShoulder
				{
					OFFSET -15.141001 14.495407 -7.737500
					CHANNELS 3 Xrotation Yrotation Zrotation
					JOINT RightArm
					{
						OFFSET -9.308998 -2.777710 0.208500
						CHANNELS 3 Xrotation Yrotation Zrotation
						JOINT RightForeArm
						{
							OFFSET -29.972300 0.000000 0.000000
							CHANNELS 3 Xrotation Yrotation Zrotation
							JOINT RightHand
							{
								OFFSET -26.026505 0.000000 0.000000
								CHANNELS 3 Xrotation Yrotation Zrotation
								JOINT RightHandThumb1
								{
									OFFSET -12.240601 -7.148026 9.207092
									CHANNELS 3 Xrotation Yrotation Zrotation
									JOINT RightHandThumb2
									{
										OFFSET -4.138618 -2.389435 2.389433
										CHANNELS 3 Xrotation Yrotation Zrotation
										JOINT RightHandThumb3
										{
											OFFSET -2.726974 -1.574417 1.574421
											CHANNELS 3 Xrotation Yrotation Zrotation
											JOINT RightHandThumb4
											{
												OFFSET -3.941010 -2.275345 2.275343
												CHANNELS 3 Xrotation Yrotation Zrotation
												End Site
												{
													OFFSET 0.005814 5.087799 0.009927
												}
											}
										}
									}
								}
								JOINT RightHandIndex1
								{
									OFFSET -24.424698 -1.985657 5.953444
									CHANNELS 3 Xrotation Yrotation Zrotation
									JOINT RightHandIndex2
									{
										OFFSET -6.426697 0.000000 0.000000
										CHANNELS 3 Xrotation Yrotation Zrotation
										JOINT RightHandIndex3
										{
											OFFSET -5.337898 0.000000 0.000000
											CHANNELS 3 Xrotation Yrotation Zrotation
											JOINT RightHandIndex4
											{
												OFFSET -4.409401 0.000000 0.000000
												CHANNELS 3 Xrotation Yrotation Zrotation
												End Site
												{
													OFFSET 0.000000 4.409363 0.014408
												}
											}
										}
									}
								}
								JOINT RightHandMiddle1
								{
									OFFSET -23.810097 0.000000 0.000000
									CHANNELS 3 Xrotation Yrotation Zrotation
									JOINT RightHandMiddle2
									{
										OFFSET -7.176498 0.000000 0.000000
										CHANNELS 3 Xrotation Yrotation Zrotation
										JOINT RightHandMiddle3
										{
											OFFSET -6.774902 0.000000 0.000000
											CHANNELS 3 Xrotation Yrotation Zrotation
											JOINT RightHandMiddle4
											{
												OFFSET -5.403328 0.000000 0.000000
												CHANNELS 3 Xrotation Yrotation Zrotation
												End Site
												{
													OFFSET 0.027702 5.403244 0.017457
												}
											}
										}
									}
								}
								JOINT RightHandRing1
								{
									OFFSET -22.908302 -0.839325 -6.020576
									CHANNELS 3 Xrotation Yrotation Zrotation
									JOINT RightHandRing2
									{
										OFFSET -6.337502 0.000000 0.000000
										CHANNELS 3 Xrotation Yrotation Zrotation
										JOINT RightHandRing3
										{
											OFFSET -5.779297 0.000000 0.000000
											CHANNELS 3 Xrotation Yrotation Zrotation
											JOINT RightHandRing4
											{
												OFFSET -4.965698 0.000000 0.000000
												CHANNELS 3 Xrotation Yrotation Zrotation
												End Site
												{
													OFFSET 0.000000 4.965668 0.016226
												}
											}
										}
									}
								}
								JOINT RightHandPinky1
								{
									OFFSET -20.037003 -1.530334 -10.950259
									CHANNELS 3 Xrotation Yrotation Zrotation
									JOINT RightHandPinky2
									{
										OFFSET -5.254700 0.000000 0.000000
										CHANNELS 3 Xrotation Yrotation Zrotation
										JOINT RightHandPinky3
										{
											OFFSET -4.810204 0.000000 0.000000
											CHANNELS 3 Xrotation Yrotation Zrotation
											JOINT RightHandPinky4
											{
												OFFSET -3.647202 0.000000 0.000000
												CHANNELS 3 Xrotation Yrotation Zrotation
												End Site
												{
													OFFSET 0.000000 3.647186 0.011917
												}
											}
										}
									}
								}
							}
						}
					}
				}
			}
		}
	}
	JOINT LeftUpLeg
	{
		OFFSET 15.427100 -6.655098 0.678600
		CHANNELS 3 Xrotation Yrotation Zrotation
		JOINT LeftLeg
		{
			OFFSET 4.081073 -39.591068 13.024000
			CHANNELS 3 Xrotation Yrotation Zrotation
			JOINT LeftFoot
			{
				OFFSET -4.081074 -37.707932 -15.979700
				CHANNELS 3 Xrotation Yrotation Zrotation
				JOINT LeftToeBase
				{
					OFFSET 5.346399 -15.068900 20.645000
					CHANNELS 3 Xrotation Yrotation Zrotation
					JOINT LeftToe_End
					{
						OFFSET 2.754700 0.931300 11.300900
						CHANNELS 3 Xrotation Yrotation Zrotation
						End Site
						{
							OFFSET 0.000000 11.669021 0.000000
						}
					}
				}
			}
		}
	}
	JOINT RightUpLeg
	{
		OFFSET -15.569500 -6.655098 0.678600
		CHANNELS 3 Xrotation Yrotation Zrotation
		JOINT RightLeg
		{
			OFFSET -4.081825 -39.591045 13.023800
			CHANNELS 3 Xrotation Yrotation Zrotation
			JOINT RightFoot
			{
				OFFSET 4.081824 -37.707954 -15.979600
				CHANNELS 3 Xrotation Yrotation Zrotation
				JOINT RightToeBase
				{
					OFFSET -5.346400 -15.068900 20.645000
					CHANNELS 3 Xrotation Yrotation Zrotation
					JOINT RightToe_End
					{
						OFFSET -2.754700 0.931300 11.300900
						CHANNELS 3 Xrotation Yrotation Zrotation
						End Site
						{
							OFFSET 0.000000 11.669021 0.000000
						}
					}
				}
			}
		}
	}
}
MOTION
Frames: 4
Frame Time: 0.033333
0.707689 86.593575 159.259506 -2.651163 9.599106 -3.022123 5.454341 -7.509796 4.971225 0.288638 -1.896720 0.669906 0.279886 -1.899522 0.679167 -1.559052 0.168496 -0.179565 -1.386266 -1.631770 -1.954733 -0.000000 0.000000 -0.000000 0.329178 -6.372280 -19.379026 -9.081455 -19.132897 -56.006981 0.000011 -16.484580 0.000031 -0.329106 -11.597753 11.669139 -2.832633 -1.477325 13.645916 19.418523 20.060168 -7.185886 -19.322252 -20.009521 13.852819 0.000001 0.000002 -0.000001 -0.822215 1.903720 -26.161713 0.628330 2.641467 -26.756475 0.168808 1.397594 -13.773209 -0.000000 0.000001 0.000003 1.463665 6.195256 -35.266032 0.733068 2.839493 -28.947281 0.318810 1.907974 -18.970202 -0.000001 -0.000002 0.000001 3.636011 9.009879 -37.135759 1.313835 3.698268 -39.105032 0.172674 1.413266 -13.930739 0.000001 -0.000002 -0.000000 1.790049 6.822366 -33.817363 0.582953 2.549602 -25.754823 0.281602 1.796155 -17.818999 -0.000001 -0.000001 0.000001 1.004217 -2.262580 17.754853 9.033805 -7.952294 63.286982 -0.000001 7.753340 -0.000019 14.175959 2.394612 -0.582797 -8.879572 4.825545 -8.712528 15.945413 -25.931013 -2.999389 -5.662404 19.227307 -14.941403 -0.000000 -0.000000 -0.000004 -0.183140 -1.998011 14.700374 0.797268 -2.607817 33.994261 0.094367 -0.933739 11.541079 0.000000 0.000001 -0.000004 1.072446 -5.468204 25.674329 0.634853 -2.349315 30.239932 0.033664 -0.559616 6.886368 -0.000000 -0.000000 0.000002 2.934484 -8.199074 32.071488 0.445121 -1.988725 25.230096 0.058381 -0.735871 9.071619 -0.000001 0.000001 -0.000001 0.852292 -5.011083 34.548630 0.608671 -2.303855 29.594930 0.210506 -1.385727 17.274501 0.000001 -0.000001 0.000001 4.342023 4.514756 9.279302 49.586326 1.519718 2.372865 20.624308 -1.798801 -8.346306 -53.798299 7.069659 -6.484828 0.000002 -0.000002 0.000000 -30.842334 -7.613156 0.270250 29.515737 -10.018180 -0.114368 3.862970 -0.125793 -1.557888 -2.097204 0.000000 0.000001 -0.000000 -0.000000 -0.000000 
0.603080 87.216118 164.362427 -3.176300 8.394295 -3.106343 5.803400 -6.150079 4.858379 0.411648 -1.525842 0.564639 0.405305 -1.528356 0.574712 -1.456714 0.066635 -0.085761 -1.443870 -1.910969 -1.791196 0.000000 0.000000 0.000000 0.366834 -5.977231 -19.249710 -8.041483 -17.384069 -57.264774 0.000007 -13.090171 -0.000003 1.254525 -10.979805 11.143951 -2.832632 -1.477323 13.645915 19.354046 19.926607 -7.099059 -18.995564 -19.520150 13.456117 0.000001 0.000001 0.000003 -0.769659 2.109213 -26.921401 0.661139 2.705483 -27.459806 0.194880 1.499924 -14.804377 -0.000003 -0.000000 -0.000001 1.505054 6.241520 -35.945803 0.762897 2.892666 -29.543334 0.324740 1.925146 -19.147698 0.000000 0.000003 0.000002 3.947656 9.355606 -37.620286 1.339336 3.729339 -39.498639 0.180874 1.445940 -14.259714 0.000003 -0.000000 -0.000004 1.960887 7.085037 -34.503322 0.627811 2.640434 -26.745248 0.292373 1.829325 -18.159767 -0.000000 0.000001 -0.000001 0.976580 -1.656537 18.119481 6.190833 -5.434256 62.957672 -0.000000 8.055498 -0.000011 10.902662 2.867729 -2.648741 -8.879570 4.825544 -8.712530 16.211063 -26.257419 -2.762603 -5.631285 18.307598 -13.899855 -0.000001 -0.000001 -0.000004 -0.208150 -2.140607 17.035901 0.874369 -2.718520 35.653372 0.125059 -1.073128 13.293804 -0.000000 -0.000001 -0.000003 1.204994 -5.609127 28.078561 0.717546 -2.485624 32.200121 0.053600 -0.705288 8.691600 0.000001 0.000000 -0.000001 3.165189 -8.263276 34.288940 0.513402 -2.127515 27.131207 0.083391 -0.878291 10.847046 -0.000000 -0.000000 0.000000 0.921083 -5.096746 36.846238 0.684163 -2.431858 31.421998 0.255894 -1.523995 19.062073 0.000001 -0.000000 0.000000 -1.929791 3.280202 9.153435 56.542563 3.616191 1.170746 14.606353 -0.950828 -5.352408 -37.224555 6.308688 -9.370166 -0.000001 -0.000002 0.000001 -26.829833 -8.453724 1.393126 30.863504 -8.583946 0.297735 -0.965148 -0.193280 -2.055340 -2.098636 0.000004 -0.000001 -0.000000 -0.000000 -0.000000 
0.555494 88.239227 169.915863 -3.652505 7.273766 -3.122398 6.073026 -4.528001 4.717452 0.525847 -1.111680 0.431452 0.522004 -1.113969 0.440611 -1.318892 -0.055783 -0.041755 -1.504024 -2.447187 -1.676891 0.000000 0.000000 -0.000000 0.401363 -5.674362 -18.994418 -6.490530 -15.404892 -58.467177 -0.000000 -10.391353 -0.000018 3.079757 -9.379570 9.046977 -2.832632 -1.477326 13.645916 19.251156 19.710966 -6.959768 -18.568071 -18.883176 12.918909 0.000002 0.000004 0.000002 -0.800320 2.097840 -27.310378 0.687989 2.756485 -28.023373 0.216911 1.580890 -15.623704 -0.000002 0.000000 0.000000 1.518805 6.250637 -36.564482 0.790945 2.941537 -30.094425 0.337775 1.962280 -19.532085 -0.000001 -0.000002 0.000002 4.002926 9.377086 -38.020258 1.376005 3.773304 -40.059271 0.192999 1.492815 -14.732406 0.000001 0.000002 -0.000003 1.958430 7.091780 -34.845795 0.653678 2.691101 -27.301369 0.307865 1.875889 -18.639089 -0.000000 0.000001 0.000001 0.975365 -1.464840 18.408769 3.307603 -2.437679 62.692203 -0.000001 8.703436 0.000004 7.877939 3.562455 -4.215691 -8.879571 4.825544 -8.712529 16.513190 -26.620930 -2.494088 -5.655736 18.178193 -13.649506 -0.000000 -0.000000 -0.000001 -0.248533 -2.191120 18.931633 0.966946 -2.843006 37.561539 0.161820 -1.218242 15.132212 0.000000 0.000001 -0.000001 1.291752 -5.648052 30.735182 0.809170 -2.625353 34.254860 0.082154 -0.871828 10.766288 -0.000000 -0.000001 -0.000002 3.416514 -8.285011 37.000965 0.598663 -2.286156 29.345051 0.118834 -1.046426 12.957172 -0.000000 -0.000000 -0.000000 0.992975 -5.165994 39.665265 0.784080 -2.588167 33.703165 0.318555 -1.694446 21.293197 -0.000000 -0.000001 -0.000001 -8.271585 2.963678 7.817379 58.879502 2.285106 0.325448 12.429521 -0.873793 -2.283736 -36.862524 3.437908 -5.099823 0.000002 0.000000 0.000001 -21.544828 -9.299152 2.291324 30.607085 -6.879189 0.905637 -5.449300 -0.298670 -2.736344 -2.100263 -0.000002 0.000001 -0.000000 0.000000 -0.000000 
0.611839 89.483253 175.604874 -3.771093 6.053558 -3.229516 6.093794 -2.697504 4.689309 0.567564 -0.658892 0.338324 0.565297 -0.661568 0.344476 -1.127442 -0.208611 -0.003244 -1.800051 -3.172273 -1.916202 -0.000000 0.000000 0.000000 0.430297 -5.436191 -18.724863 -3.849401 -13.295221 -59.594179 -0.000001 -9.025234 -0.000011 5.743128 -7.695680 7.292472 -2.832631 -1.477327 13.645913 19.234079 19.675123 -6.936227 -18.576960 -18.889317 12.919401 -0.000001 -0.000000 -0.000003 -0.838461 2.121910 -28.080525 0.707689 2.793135 -28.430265 0.227829 1.619463 -16.015209 0.000003 0.000002 0.000000 1.517385 6.239467 -37.264167 0.815047 2.982676 -30.560831 0.351738 2.001150 -19.935553 0.000000 0.000001 0.000001 4.077627 9.394829 -38.646115 1.407320 3.810144 -40.532648 0.204801 1.536988 -15.178924 -0.000001 0.000002 -0.000001 1.959119 7.090195 -35.387056 0.674347 2.730723 -27.738375 0.322922 1.919935 -19.093731 -0.000000 -0.000001 0.000000 0.948191 -1.142361 18.385583 1.044003 0.703621 62.591519 -0.000001 10.155571 -0.000002 4.871442 4.092388 -4.138326 -8.879573 4.825544 -8.712527 16.966731 -27.151844 -2.092432 -5.704644 18.115280 -13.404658 -0.000000 -0.000000 0.000003 -0.301673 -2.206206 20.721284 1.054197 -2.952850 39.287180 0.200262 -1.352363 16.845758 -0.000000 -0.000000 0.000000 1.346567 -5.654508 33.044619 0.897509 -2.750455 36.138381 0.113570 -1.023290 12.665741 -0.000000 -0.000001 0.000001 3.580099 -8.221266 39.446279 0.688507 -2.438946 31.524205 0.158871 -1.207281 14.992795 0.000000 -0.000001 -0.000001 0.995264 -5.145955 42.186537 0.890239 -2.740499 35.986679 0.389659 -1.866552 23.581274 -0.000000 -0.000001 -0.000000 -14.072397 2.997799 6.284037 57.533211 -0.208078 -0.100897 10.867040 -0.993323 -2.423525 -38.205237 -0.877553 1.263627 0.000000 -0.000000 0.000000 -15.727991 -10.014086 2.960203 28.742348 -4.991950 1.825864 -9.138858 -0.365451 -3.559951 -2.102893 -0.000004 0.000001 -0.000000 -0.000001 -0.000000 
